<svg xmlns="http://www.w3.org/2000/svg" style="enable-background:new 0 0 330.9 170.4" xml:space="preserve" viewBox="0 0 330.9 170.4">
  <style>
    .st0{fill:#000333}
  </style>
  <path class="st0" d="m279.5 98.3 35.3-.9-.3-12.7-35.3.9.3 12.7zm3.2-10.1c.8-.1 2-.2 3.5-.3 1.4-.1 3.1-.2 4.9-.3 1.8-.1 3.7-.1 5.6-.2 1.9 0 3.8-.1 5.6-.1 1.8 0 3.5.1 4.9.1 1.4 0 2.6.1 3.5.1.8.1 1.3.1 1.3.1s-.5 0-1.3.1-2 .2-3.5.3c-1.4.1-3.1.2-4.9.3-1.8.1-3.7.1-5.6.2-1.9 0-3.8.1-5.6.1-1.8 0-3.5-.1-4.9-.1-1.4 0-2.6-.1-3.5-.1-.8-.1-1.3-.1-1.3-.1s.5 0 1.3-.1zM321.5 98.2l-.4-12.4-5.6-.9.6 12.5zM319.9 98.8l-5.1-.7-33.6.9zM278.9 97.6l-.3-11.7-184.4 1.2s-.9 0-2.4.1l-28.2 1.3C41.8 89.6 14.3 91 1.4 92c0 0-1.2.2-1.4 1.4-.2 1.2 1.5 1.3 1.5 1.3 10.8.9 48.5 3.2 93.1 3.3 53.1.1 184.3-.4 184.3-.4zm-205.4-7c-6.1 0-11.2 0-14.8-.1h-5.6s2-.1 5.6-.2c3.6-.1 8.7-.2 14.8-.4 6.1-.1 13.3-.2 20.9-.4 7.7-.1 15.8-.2 24-.3 8.2-.1 16.3-.1 24-.2h20.9c6.1 0 11.2 0 14.8.1 3.6 0 5.6.1 5.6.1s-2 .1-5.6.2c-3.6.1-8.7.2-14.8.4-6.1.1-13.3.2-20.9.4-7.7.1-15.8.2-24 .3-8.2.1-16.3.1-24 .2-7.6-.1-14.8-.1-20.9-.1zM162.3 37.6c-14 0-25.4 11.4-25.4 25.4 0 5.6 4.6 10.2 10.2 10.2h30.3c5.6 0 10.2-4.6 10.2-10.2 0-14-11.3-25.4-25.3-25.4zm12.9 33h-25.9c-4.8 0-8.7-3.9-8.7-8.7 0-12 9.7-21.7 21.7-21.7S184 49.9 184 61.9c-.1 4.8-4 8.7-8.8 8.7z"/>
  <path class="st0" d="M162.3 47.1c-8.4 0-15.2 6.8-15.2 15.2 0 3.4 2.7 6.1 6.1 6.1h18.2c3.4 0 6.1-2.7 6.1-6.1 0-8.4-6.9-15.2-15.2-15.2zM201 41.4c2.4 5.7 3.6 11.8 3.6 18v1.3c1-1.6 2-3.4 2.9-5.6l.5-1.1v-4c0-7.6-1.7-14.9-4.8-21.3.9 4.4.2 8.8-2.2 12.7zM111.1 76.5V57.7c-1.3-1.6-2.4-3.4-3.4-5.5v16.3c0 3.4 1.3 6.4 3.4 8.7v-.7zM204.6 76.5v.7c2.1-2.3 3.4-5.4 3.4-8.7V57.9c-.7 2.7-1.8 5.1-3.4 7.2v11.4zM186.7 22.7c5.4 4.2 9.8 9.7 12.9 15.7 1.7-3.3 2.3-7.4 1.8-12.2l-.1-1.1c-4.1-7.2-10-13.3-17.1-17.7 2.9 4.4 3.7 9.5 2.5 15.3zM154.1 0c4.4 2.9 7.4 7.3 8.9 12.9 7.5.8 14.8 3.5 21.1 7.8 1.4-7.4-1.4-13.8-1.4-13.8l-.3-.6"/>
  <path class="st0" d="M157.6 4.3c1.2 2.1 2.5 5 3.2 8.8l.1.6h-.7c-.8 0-1.6-.1-2.4-.1-6.1 0-12.1 1.2-17.7 3.6l-.4.2-.2-.3c-2-2.9-4.8-4.8-8.2-5.6 2.2 1.1 4.9 3 6.9 6l.3.5-.5.3c-5.3 2.6-9.9 6-13.9 10.4l-.4.4-.4-.4c-2-1.9-4.3-3-6.9-3.3 2.2 1.4 4.1 3 5.7 4.8l.3.3-.3.3c-5.8 7.2-9.2 15.8-9.9 25l-.1 1.1-.8-.8-.5-.5c.4.5.8 1.1 1.2 1.6l.1.2v19.1c0 .3 0 .7.1 1.1 2.4 2.3 5.4 3.5 8.7 3.5h.7V61.8c.2-6.6 2.3-13 6.1-18.5l2.3-2.9c3.3-3.7 7.4-6.8 11.8-8.8l2.1-.8c3.7-1.4 7.7-2.1 11.6-2.1h9.3c4.9 0 9.6 1 14.1 3.1l2.7 1.4c5 2.9 9.2 7 12.2 11.9l1.2 2.2c2.5 4.8 3.7 10 3.7 15.4v17.9c1.8-.6 3.5-1.6 4.9-2.9 0-.4.1-.7.1-1.1V64.8l.1-.1c1-1.3 1.8-2.8 2.5-4.4-.5.9-1.1 1.7-1.7 2.5l-.9 1.2v-4.4c0-6.2-1.2-12.2-3.6-17.8l-.1-.2.1-.2c2-3.2 2.9-6.5 2.6-10-.2 3.3-1.1 6.2-2.5 8.7l-.5.8-.4-.9c-3.1-6.4-7.7-12.1-13.3-16.5l-.3-.2.1-.3c1-4.4.8-8.4-.7-11.9.6 2.8 1 6.7 0 10.9l-.2.8-.6-.4c-6.4-4.5-13.9-7.3-21.6-8.1h-.4l-.1-.4c-1-4-2.5-7.1-4.6-9.6"/>
  <path class="st0" d="M153.3.1c-9.5.9-18.3 4.5-25.6 9.9 5.3.1 9.5 2.2 12.4 6.2 5.6-2.3 11.6-3.5 17.7-3.5h1.8C157.7 3.9 153 .5 153 .5M137 17.6c-3.7-5.3-10-6.6-10.1-6.6v-.5c-4.8 3.8-8.9 8.5-12.1 13.7 3.3-.1 6.2 1 8.8 3.3 3.9-4.1 8.4-7.4 13.4-9.9zM111.3 54.7c.9-8.8 4.3-17.1 9.8-24.1-1.9-2.1-4.2-3.8-6.8-5.3-4.2 7.3-6.6 15.7-6.6 24.7v1l.4-.2c1.1 1.4 2.1 2.7 3.2 3.9zM55.9 40.2c-13.1 0-23.7 10.6-23.7 23.7 0 5.3 4.3 9.5 9.5 9.5H70c5.3 0 9.5-4.3 9.5-9.5.1-13.1-10.6-23.7-23.6-23.7zM68 71H43.8c-4.5 0-8.1-3.7-8.1-8.1 0-11.2 9.1-20.2 20.2-20.2 11.2 0 20.2 9.1 20.2 20.2 0 4.4-3.6 8.1-8.1 8.1z"/>
  <path class="st0" d="M55.9 49.1c-7.8 0-14.2 6.4-14.2 14.2 0 3.1 2.6 5.7 5.7 5.7h17c3.1 0 5.7-2.6 5.7-5.7 0-7.9-6.4-14.2-14.2-14.2zM92 43.8c2.2 5.3 3.4 11 3.4 16.8v1.2c1-1.5 1.9-3.2 2.7-5.2l.4-1.1v-3.8c0-7.1-1.6-13.9-4.5-19.9.9 4.2.3 8.3-2 12zM8.1 76.6V59C7 57.5 5.9 55.8 5 53.9v15.2c0 3.1 1.2 6 3.2 8.2 0-.3-.1-.5-.1-.7zM95.4 76.6v.6c1.9-2.2 3.2-5 3.2-8.1v-9.9c-.6 2.5-1.7 4.8-3.1 6.7v10.7zM78.7 26.3c5 4 9.2 9 12 14.7 1.6-3.1 2.1-6.9 1.7-11.4l-.1-1c-3.9-6.7-9.4-12.4-15.9-16.5 2.6 4 3.4 8.8 2.3 14.2zM48.3 5.2c4.1 2.7 6.9 6.8 8.3 12.1 7 .8 13.8 3.3 19.7 7.3 1.3-6.9-1.3-12.8-1.3-12.9l-.3-.6C67.9 7.2 60.1 5 51.8 5"/>
  <path class="st0" d="m90.6 43.1-.4-.8c-2.9-6-7.2-11.3-12.4-15.4l-.2-.2.1-.3c.9-4.1.7-7.8-.6-11.1.5 2.6.9 6.2 0 10.2l-.2.7-.6-.4c-6-4.2-12.9-6.9-20.1-7.6h-.3l-.1-.3c-.8-3.4-2.2-6.3-4.2-8.6 1.2 2 2.3 4.6 3 8.2l.1.6-.7-.1c-.7 0-1.5-.1-2.2-.1-5.7 0-11.3 1.1-16.5 3.3l-.4.2-.2-.3c-1.9-2.7-4.5-4.5-7.7-5.2 2.1 1 4.6 2.8 6.4 5.6l.3.5-.5.2c-4.9 2.4-9.3 5.6-13 9.7l-.2.3-.4-.3c-1.9-1.8-4.1-2.8-6.4-3.1 2 1.3 3.8 2.8 5.3 4.5l.3.3-.3.3c-5.4 6.7-8.6 14.8-9.3 23.3l-.1 1-.7-.7-.5-.5c.3.5.7 1 1.1 1.5l.1.1v18.9c2.2 2.1 5.1 3.3 8.1 3.3h.6v-18c.2-6.2 2.1-12.2 5.7-17.2l2.1-2.7c3-3.5 6.9-6.3 11.1-8.2l1.9-.8c3.5-1.3 7.1-1.9 10.9-1.9h8.7c4.6 0 9 1 13.2 2.9l2.5 1.3c4.7 2.7 8.6 6.5 11.4 11.1l1.1 2c2.3 4.5 3.5 9.3 3.5 14.4v16.7c1.7-.5 3.2-1.5 4.5-2.7 0-.4.1-.7.1-1v-11l.1-.1c.9-1.2 1.7-2.6 2.3-4.1-.5.8-1 1.6-1.6 2.3l-.9 1.1v-4.1c0-5.8-1.1-11.4-3.4-16.6l-.1-.2.1-.2c1.9-2.9 2.7-6.1 2.4-9.3-.2 3.1-1 5.8-2.3 8.1l-.5.5z"/>
  <path class="st0" d="M47.5 5.2c-8.9.8-17.1 4.2-23.8 9.3 5 .1 8.9 2 11.6 5.7 5.3-2.2 10.8-3.3 16.5-3.3h1.7c-1.7-8.2-6.1-11.4-6.2-11.4M32.3 21.5c-3.4-5-9.3-6.1-9.4-6.1V15c-4.5 3.5-8.3 7.9-11.3 12.8 3.1-.1 5.8.9 8.2 3.1 3.7-3.9 7.9-7 12.5-9.4zM8.4 56.1c.8-8.2 4-16 9.1-22.5-1.8-1.9-3.9-3.6-6.4-4.9C7.3 35.5 5 43.4 5 51.8v1l.4-.2c1 1.2 2 2.5 3 3.5zM292.4 63.9c0-13.1-10.6-23.7-23.7-23.7S245 50.8 245 63.9c0 5.3 4.3 9.5 9.5 9.5h28.3c5.3 0 9.6-4.3 9.6-9.5zM280.8 71h-24.2c-4.5 0-8.1-3.7-8.1-8.1 0-11.2 9.1-20.2 20.2-20.2 11.2 0 20.2 9.1 20.2 20.2.1 4.4-3.6 8.1-8.1 8.1z"/>
  <path class="st0" d="M268.7 49.1c-7.8 0-14.2 6.4-14.2 14.2 0 3.1 2.6 5.7 5.7 5.7h17c3.1 0 5.7-2.6 5.7-5.7 0-7.9-6.4-14.2-14.2-14.2zM304.8 43.8c2.2 5.3 3.4 11 3.4 16.8v1.2c1-1.5 1.9-3.2 2.7-5.2l.4-1.1v-3.8c0-7.1-1.6-13.9-4.5-19.9 1 4.2.3 8.3-2 12zM221 76.6V59c-1.2-1.5-2.2-3.2-3.2-5.1v15.2c0 3.1 1.2 6 3.2 8.2v-.7zM308.2 65.9V77.2c1.9-2.2 3.2-5 3.2-8.1v-9.9c-.7 2.5-1.8 4.8-3.2 6.7zM291.5 26.3c5 4 9.2 9 12 14.7 1.6-3.1 2.1-6.9 1.7-11.4l-.1-1c-3.9-6.7-9.4-12.4-15.9-16.5 2.7 4 3.5 8.8 2.3 14.2zM261.1 5.2c4.1 2.7 6.9 6.8 8.3 12.1 7 .8 13.8 3.3 19.7 7.3 1.3-6.9-1.3-12.8-1.3-12.9l-.3-.6C280.7 7.2 272.9 5 264.6 5"/>
  <path class="st0" d="m303.5 43.1-.4-.8c-2.9-6-7.2-11.3-12.4-15.4l-.2-.2.1-.3c.9-4.1.7-7.8-.6-11.1.5 2.6.9 6.2 0 10.2l-.2.7-.6-.4c-6-4.2-12.9-6.9-20.1-7.6h-.3l-.1-.3c-.8-3.4-2.2-6.3-4.2-8.6 1.2 2 2.3 4.6 3 8.2l.1.6h-.6c-.7 0-1.5-.1-2.2-.1-5.7 0-11.3 1.1-16.5 3.3l-.4.2-.2-.3c-1.9-2.7-4.5-4.5-7.7-5.2 2.1 1 4.6 2.8 6.4 5.6l.3.5-.5.2c-4.9 2.4-9.3 5.6-13 9.7l-.3.4-.4-.3c-1.9-1.8-4.1-2.8-6.4-3.1 2 1.3 3.8 2.8 5.3 4.5l.3.3-.3.3c-5.4 6.7-8.6 14.8-9.3 23.3l-.1 1-.7-.7-.5-.5c.3.5.7 1 1.1 1.5l.1.1v18.9c2.2 2.1 5.1 3.3 8.1 3.3h.6V63c.2-6.2 2.1-12.2 5.7-17.2l2.1-2.7c3-3.5 6.9-6.3 11.1-8.2l1.9-.8c3.5-1.3 7.1-1.9 10.9-1.9h8.7c4.6 0 9 1 13.2 2.9l2.5 1.3c4.7 2.7 8.6 6.5 11.4 11.1l1.1 2c2.3 4.5 3.5 9.3 3.5 14.4v16.7c1.7-.5 3.2-1.5 4.5-2.7 0-.4.1-.7.1-1v-11l.1-.1c.9-1.2 1.7-2.6 2.3-4.1-.5.8-1 1.6-1.6 2.3l-.9 1.1V61c0-5.8-1.1-11.4-3.4-16.6l-.1-.2.1-.2c1.9-2.9 2.7-6.1 2.4-9.3-.2 3.1-1 5.8-2.3 8.1l-.5.3z"/>
  <path class="st0" d="M260.3 5.2c-8.9.8-17.1 4.2-23.8 9.3 5 .1 8.9 2 11.6 5.7 5.3-2.2 10.8-3.3 16.5-3.3h1.7c-1.7-8.2-6.1-11.4-6.2-11.4M245.2 21.5c-3.4-5-9.3-6.1-9.4-6.1V15c-4.5 3.5-8.3 7.9-11.3 12.8 3.1-.1 5.8.9 8.2 3.1 3.6-3.9 7.8-7 12.5-9.4zM221.2 56.1c.8-8.2 4-16 9.1-22.5-1.8-1.9-3.9-3.6-6.4-4.9-3.9 6.8-6.1 14.7-6.1 23.1v1l.4-.2c1 1.2 2 2.5 3 3.5zM45.7 111.3c-.8-.6-1.8-1.3-2.9-2.2-1.1-.9-2.1-2-3-3.4-1.4-2-3.1-3.2-5.1-3.5-2-.3-4.2-.1-6.4.8-2.3.8-4.5 2.1-6.7 3.9-2.2 1.7-4.2 3.6-5.9 5.6-1.7 2-3.1 4.1-4.2 6.1-1.1 2.1-1.5 3.9-1.4 5.5.2 2.3.8 4.3 1.9 5.7 1.1 1.5 2.4 2.7 4.1 3.7 1.6 1 3.5 1.7 5.5 2.2 2 .5 4.1 1 6.3 1.5 2.4.5 4.4 1.3 5.9 2.2 1.5 1 2.6 2 3.2 3.1.6 1.1.9 2.1.7 3.1-.2 1-.8 1.7-1.7 2.3-2.7 1.4-5.1 2.4-7.4 2.9-2.3.5-4.3.7-6.2.6-1.9-.1-3.6-.3-5.1-.7-1.5-.4-2.9-.9-4.1-1.3-1.2-.5-2.2-.8-3-1.1-.8-.3-1.5-.3-2 0-.7.4-.9 1.3-.5 2.6s1.5 2.6 3.1 4 3.9 2.6 6.7 3.7c2.8 1.1 6.2 1.6 10.3 1.6 2 0 4.1-.3 6.4-.8 2.3-.5 4.4-1.3 6.3-2.4 1.9-1.1 3.4-2.5 4.6-4.1 1.1-1.6 1.6-3.6 1.2-6-.4-3-1.3-5.4-2.6-7.1-1.3-1.7-2.8-3.1-4.5-4.1-1.7-1-3.6-1.8-5.6-2.3-2-.6-3.9-1.2-5.7-2-3.6-1.5-5.8-3.1-6.6-4.6-.8-1.5-.4-3.6 1.4-6.1 1.3-1.8 2.6-3.2 3.9-4.2 1.4-1 2.7-1.8 3.9-2.3 1.2-.5 2.4-.8 3.5-1 1.1-.1 1.9-.3 2.6-.4 1.2-.2 2.3-.1 3.3.3 1 .3 2 .7 2.9 1.1.9.4 1.7.6 2.4.8.7.1 1.3-.1 1.9-.7.5-.6.6-1.1.3-1.6-.3-.3-.9-.8-1.7-1.4zM83.3 109c-.7-.1-1.4.5-2 1.7-.6 1.2-1.2 2.7-1.6 4.6-.5 1.9-.9 4.1-1.3 6.6l-1.2 7.5c-.4 2.6-.7 5-1.1 7.5-.4 2.4-.7 4.5-1.1 6.3-.2.8-.5 2-1 3.3-.5 1.4-1.2 2.5-2 3.5s-1.6 1.5-2.6 1.7c-1 .1-2.1-.6-3.2-2.3-1.2-1.8-2.2-3.9-3.1-6.6-.8-2.6-1.5-5.4-2.1-8.2-.6-2.8-1.1-5.7-1.5-8.4-.4-2.8-.8-5.2-1.1-7.3-.1-.4-.1-1.1-.3-2.2-.1-1-.3-2.1-.6-3.3l-.9-3.6c-.3-1.2-.7-2.2-1.1-3.1-.4-.8-.9-1.4-1.4-1.6-.5-.2-1 0-1.6.8-.3.3-.6 1.3-1 3.1-.4 1.7-.8 3.9-1.1 6.5-.3 2.6-.6 5.6-.7 8.8-.1 3.2-.1 6.5.2 9.9.2 3.3.8 6.6 1.6 9.8.8 3.2 2 6 3.5 8.5s3.5 4.5 5.9 6.1c2.4 1.5 5.3 2.3 8.8 2.4 2.7.1 4.9-.6 6.7-2 1.7-1.4 3.1-3.1 4.1-5.2 1-2.1 1.8-4.3 2.3-6.8.5-2.4.9-4.7 1.2-6.7.2-1.7.3-3.4.3-5.1 0-1.7 0-3.3-.1-5-.1-1.7-.2-3.3-.2-5-.1-1.6-.1-3.3 0-4.9.1-1 .1-2.1.2-3.4.1-1.3.2-2.5.2-3.7.1-1.2 0-2.1-.1-2.9-.3-1-.5-1.4-1-1.3zM127.3 111.3c-.8-.6-1.8-1.3-2.9-2.2-1.1-.9-2.1-2-3-3.4-1.4-2-3.1-3.2-5.1-3.5-2-.3-4.2-.1-6.4.8-2.3.8-4.5 2.1-6.7 3.9-2.2 1.7-4.2 3.6-5.9 5.6-1.7 2-3.1 4.1-4.2 6.1-1.1 2.1-1.5 3.9-1.4 5.5.2 2.3.8 4.3 1.9 5.7 1.1 1.5 2.4 2.7 4.1 3.7 1.6 1 3.5 1.7 5.5 2.2 2 .5 4.1 1 6.3 1.5 2.4.5 4.4 1.3 5.9 2.2 1.5 1 2.6 2 3.2 3.1.6 1.1.9 2.1.7 3.1-.2 1-.8 1.7-1.7 2.3-2.7 1.4-5.1 2.4-7.4 2.9-2.3.5-4.3.7-6.2.6-1.9-.1-3.6-.3-5.1-.7-1.5-.4-2.9-.9-4.1-1.3-1.2-.5-2.2-.8-3-1.1-.8-.3-1.5-.3-2 0-.7.4-.9 1.3-.5 2.6s1.5 2.6 3.1 4 3.9 2.6 6.7 3.7c2.8 1.1 6.2 1.6 10.3 1.6 2 0 4.1-.3 6.4-.8 2.3-.5 4.4-1.3 6.3-2.4 1.9-1.1 3.4-2.5 4.6-4.1 1.1-1.6 1.6-3.6 1.2-6-.4-3-1.3-5.4-2.6-7.1-1.3-1.7-2.8-3.1-4.5-4.1-1.7-1-3.6-1.8-5.6-2.3-2-.6-3.9-1.2-5.7-2-3.6-1.5-5.8-3.1-6.6-4.6-.8-1.5-.4-3.6 1.4-6.1 1.3-1.8 2.6-3.2 3.9-4.2 1.4-1 2.7-1.8 3.9-2.3 1.2-.5 2.4-.8 3.5-1 1.1-.1 1.9-.3 2.6-.4 1.2-.2 2.3-.1 3.3.3 1 .3 2 .7 2.9 1.1.9.4 1.7.6 2.4.8.7.1 1.3-.1 1.9-.7.5-.6.6-1.1.3-1.6-.3-.3-.9-.8-1.7-1.4zM174.6 126.4c-.6-.1-1.2 0-2 .1-.7.1-1.5.2-2.4.3-.8.1-1.6.1-2.4 0 .1-1.2 0-2.4 0-3.8-.1-1.4-.2-2.8-.4-4.2-.2-1.4-.3-2.8-.5-4.1-.2-1.4-.3-2.6-.4-3.9-.1-.7-.3-1.5-.9-2.4-.5-.9-1.1-1.6-1.8-2-.7-.5-1.4-.6-2.1-.5-.7.2-1.3.9-1.7 2.2-.2.6-.3 1.8-.3 3.5s.1 3.6.2 5.6c.1 2 .2 4 .3 5.9.1 1.9.2 3.4.2 4.4 0 .3-.4.5-1.3.6-.9.1-1.9.2-3.1.2-1.2 0-2.6.1-4.1.1-1.5.1-2.8.2-4 .4-.1-.5-.1-1.7-.3-3.4-.1-1.8-.3-3.7-.6-5.9-.2-2.2-.6-4.4-1-6.7-.5-2.3-1-4.2-1.7-5.8-.7-1.6-1.5-2.7-2.5-3.3-1-.6-2.1-.3-3.5.9-.5.4-.9 1.2-1.2 2.5-.3 1.2-.5 2.7-.6 4.3-.1 1.6-.2 3.4-.2 5.3v5.3c0 1.7.1 3.3.1 4.7.1 1.4.1 2.5.1 3.2-1.1.2-2 .4-2.8.6-.8.2-1.5.4-2 .6-.6.3-1 .7-1.3 1.2-.3.5-.5 1.2-.5 2 .2.7.6 1.3 1.1 1.6.5.3 1.1.5 1.8.5.7.1 1.3 0 2 0 .7-.1 1.3-.1 1.8-.2.1 1.1.2 2.2.2 3.5 0 1.3.1 2.5.2 3.7.2 2 .6 3.9 1.4 5.9.7 2 1.6 3.9 2.5 5.7.1.2.3.6.8 1.3.5.7 1 1.4 1.7 2 .6.6 1.2 1.1 1.8 1.4.6.3 1 0 1.4-.8.1-.3.2-.8.2-1.6v-2.4c0-.8-.1-1.7-.1-2.5s-.1-1.4-.1-1.8v-7.7c.1-1.5.1-2.9.2-4.2.1-1.3.2-2.4.4-3.3.1-.3.6-.5 1.7-.6 1.1-.1 2.3-.2 3.8-.2h4.6c1.6 0 2.9 0 3.9-.1.2 1.8.4 3.9.5 6.4.1 2.5.3 5 .5 7.5s.6 4.8 1.1 6.9c.5 2.1 1.3 3.6 2.4 4.5.5.4 1 .3 1.3-.3.3-.6.6-1.5.8-2.8.2-1.2.4-2.7.4-4.3.1-1.6.1-3.2.2-4.8v-7c0-.8 0-1.6-.1-2.5-.1-.8-.1-1.6-.1-2.4 0-.7-.1-1.3-.1-1.8v-.9c.4-.4 1.1-.8 2-1.2.9-.5 1.8-.9 2.7-1.4.9-.5 1.6-1 2.2-1.6.6-.6.8-1.2.6-1.8 0-.3-.4-.5-1-.6zM192.5 121.6c-.2-2.7-.6-5.3-1.3-7.8-.7-2.5-1.7-4.6-3.1-6.4-1.4-1.8-3.4-2.7-5.9-2.9-.2-.1-.3.3-.4 1.2-.1.9-.2 2-.3 3.4-.1 1.4-.1 3-.2 4.8v5.3c0 1.8.1 3.5.2 5.1.1 1.6.2 3.1.4 4.2.1.6.1 1.6.2 3.1s.1 3.1.2 4.9c.1 1.8.2 3.8.3 5.8.1 2 .3 3.9.6 5.6.3 1.7.6 3.1 1.1 4.3.4 1.2 1 1.9 1.7 2 .5.2 1.1-.2 1.7-1 .6-.8 1.2-2 1.7-3.4.6-1.4 1.1-3.1 1.6-5s.9-3.8 1.2-5.7c.3-1.9.6-3.8.7-5.6.2-1.8.2-3.3.1-4.6-.2-2.1-.4-4.6-.5-7.3zM233.3 132.8c-1.2-1.5-2.7-2.6-4.5-3.4-1.8-.8-3.8-1.2-6.2-1.1.8-.8 1.6-1.8 2.4-2.8.8-1 1.6-2.1 2.3-3.3.7-1.2 1.4-2.5 2-3.8.6-1.4 1-2.8 1.4-4.3.4-2.1.1-3.9-.9-5.6-1-1.6-2.3-2.9-3.9-3.9-1.7-.9-3.5-1.4-5.5-1.5-2-.1-3.8.5-5.5 1.6-1.6 1.1-3 2.3-4.1 3.6-1.1 1.3-2.1 2.6-3 4-.9 1.4-1.6 2.9-2.2 4.5-.6 1.6-1.2 3.2-1.6 5-.6 2.3-1.2 4.4-1.6 6.5-.5 2-.8 4.1-1 6.1-.2 2-.4 4-.5 6.1-.1 2.1-.1 4.3-.1 6.7.1.7.2 1.6.3 2.9.1 1.2.3 2.5.7 3.7.4 1.3.9 2.5 1.7 3.5.8 1.1 1.9 1.8 3.5 2.3 1.1.4 1.9.4 2.5.2.6-.2 1-.6 1.3-1.2.2-.5.4-1.1.4-1.8.1-.7.1-1.3 0-1.8v-1.2c0-.2.2-.2.4.2 1.3 2.1 3 3.5 4.9 4.4 2 .9 4 1.2 6.1 1.1 2.1-.1 4.2-.7 6.2-1.8 2-1 3.8-2.4 5.3-4.1 1-1.3 1.8-2.8 2.3-4.6.5-1.8.7-3.6.7-5.5-.1-1.9-.4-3.8-1-5.7-.7-1.8-1.6-3.5-2.8-5zm-19.8-6.5c.1-.9.4-2 .9-3.4s1.1-2.8 1.9-4.4c.8-1.6 1.6-3 2.5-4.2.9-1.2 1.8-2.2 2.6-2.9.9-.7 1.7-.8 2.5-.4.6.2 1 .7 1.2 1.5.2.8.2 1.8 0 3s-.6 2.4-1.1 3.7c-.6 1.3-1.3 2.6-2.2 3.8-.9 1.2-2.1 2.2-3.4 3.1-1.3.9-2.8 1.4-4.5 1.5-.4.1-.5-.4-.4-1.3zm15.7 21c-.4 1.1-1.1 2.1-2.1 2.9-1 .8-2.1 1.5-3.4 1.9-1.2.5-2.6.7-3.9.7-1.4 0-2.6-.2-3.6-.8-1.2-.6-1.9-1.3-2.1-2.2-.2-.9-.2-1.8.1-2.9.5-1.3 1.1-2.3 1.9-3 .8-.7 1.6-1.2 2.3-1.6.7-.4 1.3-.7 1.7-.9.4-.2.4-.5 0-.8-.2-.3-.6-.4-1.3-.5-.6-.1-1.4 0-2.2.1-.8.2-1.6.4-2.5.7-.9.3-1.6.7-2.3 1.3-.1-1.4 0-2.7.2-3.9.2-1.2.6-2.2 1-3.1.2-.4.6-.9 1.2-1.4.6-.5 1.3-.9 2.2-1.3.9-.4 1.9-.6 3-.8 1.1-.2 2.3-.2 3.7 0 1.1.1 2.2.6 3.3 1.6 1.1 1 1.9 2.2 2.5 3.6.6 1.5 1 3.1 1.1 4.9.1 1.9-.2 3.7-.8 5.5zM285.2 134.4c-.7-.3-1.6-.5-2.4-.6-.9-.1-1.7-.1-2.4 0s-1.2 0-1.3-.2c-.4-.7-.9-1.9-1.4-3.6-.6-1.6-1.2-3.4-1.9-5.4l-2.1-5.7c-.7-1.9-1.4-3.4-2-4.5-1.1-1.8-2.3-3.3-3.8-4.8-1.5-1.4-3-2.6-4.6-3.5-1.6-.9-3.1-1.5-4.5-1.7-1.4-.2-2.6 0-3.5.7-1.7 1.4-3 3.5-4 6.1-1 2.6-1.8 5.4-2.3 8.4-.6 3-1 5.9-1.2 8.8-.3 2.9-.5 5.3-.7 7.2-2.1.4-3.8.8-5.3 1.4-1.4.6-2.3 1.2-2.6 1.9-.3.7 0 1.3 1.1 2 1 .6 3 1.1 5.9 1.5 0 .5 0 1.7-.1 3.5s0 3.7.1 5.6c.1 2 .4 3.7.7 5.3.3 1.5.9 2.3 1.7 2.4 1.2.1 2.3-.1 3.1-.7.8-.6 1.6-1.4 2.2-2.3.6-1 1-2 1.4-3.3.3-1.2.6-2.4.8-3.7.2-1.2.3-2.4.4-3.5.1-1.1.1-2 .2-2.7 0-.1.2-.1.7-.2.5-.1 1-.2 1.7-.3.7-.1 1.5-.2 2.4-.3.9-.1 1.8-.1 2.7 0 2.9 0 5.2-.1 7.1-.4 1.9-.3 2.9-.2 3.1.2 1 2.2 1.7 4.6 2.3 7.1.6 2.5 1 4.8 1.4 7 .3 2.2.5 4.1.7 5.7.1 1.6.2 2.7.2 3.2 0 .6 0 1.2.1 1.9s.2 1.3.4 1.8c.2.6.5 1 .9 1.4.4.3.9.5 1.5.4.8-.3 1.4-1.3 1.6-3.1.2-1.8.2-4.1-.1-6.8-.3-2.7-.7-5.8-1.3-9.2-.6-3.4-1.2-6.7-1.8-10.1 0-.1.3-.2 1-.4s1.4-.5 2.2-.9c.8-.4 1.5-.9 2.2-1.5.7-.6 1-1.3.9-2.1-.3-1.1-.7-1.7-1.4-2zm-14.3 0c-.6.1-1.5.2-2.5.3-1 .1-2.1.2-3.3.3-1.2.1-2.4.1-3.5.2h-2.9c-.9 0-1.4 0-1.6-.1v-8c0-1.6 0-3.3.1-4.9.1-1.7.2-3.2.4-4.6.2-1.4.4-2.6.7-3.6.3-1 .7-1.7 1.3-2.1.5-.4 1.2-.2 2 .6.8.7 1.7 1.8 2.6 3.2.9 1.4 1.8 3 2.6 4.9.9 1.8 1.7 3.6 2.4 5.4.7 1.8 1.3 3.4 1.8 4.9.5 1.5.8 2.6.9 3.3 0 0-.4.1-1 .2zM330.1 151.7c-.4-1.1-.7-2-1.1-2.7-.3-.7-.8-1.4-1.2-2.2-.5-.7-1.1-1.5-1.8-2.4-.7-.8-1.7-1.9-2.8-3.3-1.1-1.2-2.3-2.5-3.7-3.9-1.4-1.4-2.9-2.8-4.4-4.1-1.5-1.3-3.1-2.5-4.7-3.6s-3.1-1.9-4.4-2.4c1.8-.3 3.6-1 5.6-2 2-1 3.7-2.3 5.1-3.9 1.5-1.6 2.5-3.3 3-5.3.6-2 .3-4.1-.7-6.3-.9-2-2.1-3.4-3.7-4.4-1.6-1-3.3-1.5-5.1-1.6-1.8-.1-3.7.1-5.6.8-1.9.7-3.6 1.7-5.2 3.1-2.7 2.4-4.8 5.4-6.4 9-1.6 3.6-2.7 7.5-3.5 11.5-.7 4-1.1 8-1.2 12.1 0 4 .2 7.6.6 10.8.2 1.1.5 2.2 1 3.2s1 1.9 1.7 2.7c.7.8 1.4 1.4 2.2 1.9.8.5 1.6.7 2.5.8 1 .1 1.6-.3 1.9-1.2.2-.8.3-2 .2-3.4-.1-1.5-.2-3.2-.5-5.1-.2-1.9-.3-4-.3-6.2 0-1 0-2.2.1-3.6s.1-2.7.2-3.9c.1-1.2.3-2.3.4-3.1.2-.9.5-1.3.8-1.3 2 0 3.9.7 5.5 2 1.7 1.4 3.2 3 4.7 5s2.8 4.1 4.1 6.3c1.3 2.2 2.5 4.2 3.7 5.9 1.1 1.5 2.4 3.1 3.7 4.7 1.4 1.6 2.9 2.7 4.7 3.5.4.2.9.3 1.7.2.7-.1 1.4-.4 2-.9.6-.5 1-1.3 1.3-2.4.5-.9.3-2.4-.4-4.3zm-26.7-26.6c-1.2.4-2.3.4-3.1.1.6-1.6 1.3-3.3 2-5 .7-1.7 1.5-3.2 2.5-4.6.9-1.4 2-2.6 3.2-3.6 1.2-1 2.6-1.6 4.2-1.9 1.1 1 1.6 2.1 1.7 3.3.1 1.2-.2 2.4-.8 3.7-.6 1.2-1.4 2.4-2.6 3.5-1.1 1.1-2.3 2-3.5 2.8-1.1.8-2.4 1.4-3.6 1.7z"/>
</svg>
