<svg xmlns="http://www.w3.org/2000/svg" style="enable-background:new 0 0 126.6 105.3" xml:space="preserve" viewBox="0 0 126.6 105.3"><style>.st1{fill:url(#SVGID_2_)}</style><linearGradient id="SVGID_1_" gradientUnits="userSpaceOnUse" x1="58.068" y1=".7" x2="73.876" y2="105.616"><stop offset="0" style="stop-color:#ff6b4a"/><stop offset="1" style="stop-color:#c93241"/></linearGradient><path d="M91.8 0C81 0 72.6 3.2 66.8 9.5c-1.5 1.6-1.4 4.1.2 5.6 1.6 1.5 4.1 1.4 5.6-.2C76.9 10.2 83.2 8 91.8 8c15.3 0 26.9 11.7 26.9 27.1 0 18.2-13.4 31.2-25.1 40.5-8 6.4-15.9 11.4-16.7 11.9L63.3 96l-13.6-8.5c-.9-.6-8.6-5.5-16.7-12C21.3 66.2 7.9 53.2 7.9 35c0-15.5 11.6-27.1 26.9-27.1 9.7 0 16.5 7.1 23 14.4L53 27.1c-2.7-1.7-5.8-2.6-9.1-2.6-4.6 0-9 1.8-12.2 5.1L21.2 40.1c-1.5 1.5-1.5 4 0 5.6 1.5 1.5 4 1.5 5.6 0l10.5-10.5c1.8-1.8 4.1-2.7 6.6-2.7 1.1 0 2.2.2 3.2.6L30.4 49.8c-1.5 1.5-1.5 4 0 5.6.8.8 1.8 1.2 2.8 1.2 1 0 2-.4 2.8-1.2l16.8-16.8c.4 1 .6 2.1.6 3.2 0 2.5-1 4.9-2.7 6.6L39.8 59.2c-1.5 1.5-1.5 4 0 5.6.8.8 1.8 1.2 2.8 1.2 1 0 2-.4 2.8-1.2L56.1 54c3.3-3.3 5.1-7.6 5.1-12.2 0-3.3-.9-6.4-2.6-9.1l4.6-4.6 34.6 34.8 2.4-5c.3-.6 7-15-4.2-26.3l-8.4-8.4-1.4-1.4c-3.5-3.5-9.7-4.6-14.5.2L70 23.8l-3.9-3.9-1.3-1.5C57.7 10.2 48.7 0 34.8 0 15.3 0 0 15.4 0 35c0 21.6 15 36.3 28 46.7 8.4 6.7 16.6 11.9 17.5 12.4l17.8 11.1 17.8-11.1c1.5-.9 9.3-5.9 17.5-12.4 13.1-10.4 28-25.1 28-46.7 0-19.6-15.3-35-34.8-35zM77.4 27.6c1.6-1.6 2.9-.7 3.3-.2l1.4 1.4c.8.8 2 2 8.4 8.5 3.6 3.7 4.4 7.9 4.1 11.3l-19-19.1 1.8-1.9z" style="fill:url(#SVGID_1_)"/></svg>